# xmcd
#
# Track frame offsets:
#	150
#	14517
#	29295
#	42287
#	56632
#	70627
#	87695
#	101975
#	118377
#	127960
#	143247
#	155650
#	174762
#	199182
#
# Disc length: 2993 seconds
#
# Revision: 2
# Processed by: cddbd v1.5.2PL0 Copyright (c) Steve Scherf et al.
# Submitted via: EasyCDDAExtractor 16.1.0.1
#
DISCID=c90baf0e
DTITLE=Various Artist - Unknown CD for MusicBrainz and FreeDB
DYEAR=1900
DGENRE=Pop
TTITLE0=01?繒聶穡簣瞻翹簪??
TTITLE1=02繞???繞???
TTITLE2=03??繚癟???簧?癒
TTITLE3=04?癟織疇?繚織繪??罈?翹?
TTITLE4=05???簞
TTITLE5=06?????罈?癟糧聶
TTITLE6=07翹??癟????繒罈
TTITLE7=08罈穡?瓣繙?繚翻
TTITLE8=09?簷?穫
TTITLE9=10?簽?繳??繚簷
TTITLE10=11翹??????禱
TTITLE11=12聶穡?繪簡翹?翹聶穡
TTITLE12=13?穫???簿繕??穩?罈?穫
TTITLE13=14簞瞽繡羅?瞽瞿竅簣簸?穠??聶??羹
EXTD=
EXTT0=
EXTT1=
EXTT2=
EXTT3=
EXTT4=
EXTT5=
EXTT6=
EXTT7=
EXTT8=
EXTT9=
EXTT10=
EXTT11=
EXTT12=
EXTT13=
PLAYORDER=
